<svg id="Capa_1" data-name="Capa 1" xmlns="http://www.w3.org/2000/svg" viewBox="0 0 298.72 246.74"><defs><style>.cls-1{fill:#fff;}</style></defs><path class="cls-1" d="M177.11,327.6H194v22.09l.43.23,48.18-45.34,99.2,93.34c-.88.07-1.38.14-1.87.14-6.89,0-13.79,0-20.68,0a3.92,3.92,0,0,1-2.46-.95Q292.38,374.19,268,351.22c-8.12-7.65-16.27-15.28-24.37-23-.85-.8-1.34-.72-2.15,0q-24.4,23-48.85,46Q180.6,385.71,168.5,397a3.55,3.55,0,0,1-2.09,1c-7.3.07-14.61,0-21.91,0a5.74,5.74,0,0,1-.84-.17c.58-.6,1-1.09,1.47-1.53q15.3-14.43,30.63-28.83a4,4,0,0,0,1.38-3.18c0-11.52,0-23,0-34.54Z" transform="translate(-93.32 -242.28)"/><path class="cls-1" d="M242.85,289.67l-3.15,3a16.16,16.16,0,0,0-2.62-1.64,4.56,4.56,0,0,0-4.8.67c-1.57,1.37-3,2.93-4.57,4.51l1.92,2c-.25.36-.48.74-.76,1.08-3,3.53-5.93,7.07-8.93,10.58-2.1,2.47-3.86,2.58-6.25.44q-5.41-4.86-10.81-9.74c-2.55-2.31-2.53-3.83.08-6,3.92-3.23,7.86-6.44,11.86-9.72l2.37,1.9c1.58-1.61,3.23-3.1,4.64-4.77s1.2-4-.59-5.67a2.12,2.12,0,0,1-.62-2.6c6.34-17.28,18.17-28,36.64-31a44.29,44.29,0,0,1,5.39-.52,12.32,12.32,0,0,1,2.7.5c-.58.67-1.1,1.4-1.74,2-2.64,2.56-5.52,4.89-7.92,7.65-3.64,4.21-5.89,9.1-5.67,14.86a19.44,19.44,0,0,0,4.39,11.28l-3.52,2.64c.83.78,1.25,1.22,1.72,1.62q44.11,38.07,88.25,76.11a3.37,3.37,0,0,1,1.31,2.83c-.05,6.19,0,12.39,0,18.58,0,.56,0,1.12,0,1.68l-.55.34Z" transform="translate(-93.32 -242.28)"/><path class="cls-1" d="M299.27,447.18c-4.75,0-9.41.05-14.07-.06-.55,0-1.23-.77-1.61-1.34q-11.44-17.22-22.85-34.46a5.27,5.27,0,0,0-1.61-1.71v37.46H244.22V385.52a76.53,76.53,0,0,0,9.47-.08c4.1-.52,6.31,1.14,8.45,4.56,6.72,10.74,13.85,21.22,20.82,31.8a3.73,3.73,0,0,0,1.45,1.42v-37.6h14.86Z" transform="translate(-93.32 -242.28)"/><path class="cls-1" d="M186.05,385.52c3.6,0,7,0,10.49,0,6.72,0,13.44-.09,20.14.18a19.24,19.24,0,0,1,13.15,5.37c5.78,5.66,6,19.07-4.43,23.59-.52.22-1,.47-1.76.82.6.28.9.45,1.22.57a15,15,0,0,1,10.37,14c.23,6.7-3.25,12.61-9.49,14.95a33.4,33.4,0,0,1-10.54,2.12c-9.4.29-18.81.1-28.21.1-.28,0-.56-.05-.94-.09Zm15,49.33c4.73,0,9.4.33,14-.11,3.48-.33,5.15-3,5.11-6.45-.06-4.07-2.77-6.73-7.26-6.91-3.09-.12-6.18,0-9.28,0H201Zm0-24.43c4,0,7.78.15,11.55,0s5.91-2.51,6-5.8c.15-4.08-1.68-6.67-5.65-7S205,397.5,201,397.5Z" transform="translate(-93.32 -242.28)"/><path class="cls-1" d="M158.67,479.65c0-3.79.07-7.58,0-11.37,0-1.49.3-2,1.92-2,3.42.11,3.42,0,3.42,3.45,0,5.78,0,11.56,0,17.35,0,1.42-.49,1.65-1.79,1.79-2.6.3-4.18-.6-5.47-2.9-1.8-3.19-4-6.18-6-9.24-.34-.51-.73-1-1.09-1.48l-.44.12V488.7H144V466.35c1.6,0,3.21-.08,4.81,0,.44,0,.92.65,1.23,1.1,2.42,3.65,4.81,7.32,7.21,11,.31.46.65.89,1,1.34Z" transform="translate(-93.32 -242.28)"/><path class="cls-1" d="M349,466.41c5.34-.49,5.34-.49,5.34,4.34v18.06c-1.65,0-3.16.1-4.64-.05a2.45,2.45,0,0,1-1.4-1.11c-2.41-3.58-4.76-7.2-7.14-10.8-.36-.55-.76-1.06-1.14-1.59l-.5.16v13.29h-5.11V466.35c1.57,0,3.19-.08,4.78.06.44,0,.91.67,1.21,1.13,2.39,3.59,4.74,7.22,7.11,10.82a3.12,3.12,0,0,0,1.49,1.29Z" transform="translate(-93.32 -242.28)"/><path class="cls-1" d="M331,477.46A11.13,11.13,0,0,1,319.65,489,11.51,11.51,0,1,1,331,477.46Zm-17.46,0c0,4.09,2.3,6.67,6,6.7s6.16-2.64,6.12-6.74-2.41-6.62-6.08-6.62S313.51,473.42,313.51,477.42Z" transform="translate(-93.32 -242.28)"/><path class="cls-1" d="M129.25,489a11.51,11.51,0,1,1,11.48-11.56A11.33,11.33,0,0,1,129.25,489Zm6.09-11.44c0-4-2.38-6.71-6-6.75s-6.21,2.65-6.2,6.71,2.41,6.65,6.07,6.65S135.32,481.51,135.34,477.51Z" transform="translate(-93.32 -242.28)"/><path class="cls-1" d="M219.27,480l5,8.81c-2,0-3.67.1-5.32-.06-.46,0-1-.75-1.26-1.27-1.18-2-2.23-4.11-3.43-6.11-.33-.56-1-.9-1.57-1.34l-.47.33v8.32h-5.21V466.14c4.14.21,8.23.14,12.23.72,2.95.42,4.71,3,5,6a6.69,6.69,0,0,1-3.79,6.39Zm-7-3.64c.56,0,1,.1,1.46.1a17.46,17.46,0,0,0,2.61,0,2.85,2.85,0,0,0,.1-5.62c-1.36-.13-2.74,0-4.17,0Z" transform="translate(-93.32 -242.28)"/><path class="cls-1" d="M227.91,466.53a3.25,3.25,0,0,1,.49-.18c4.69-.29,4.69-.29,4.69,4.39,0,3,0,6.07,0,9.1,0,2.8,1.4,4.25,4,4.25s4-1.39,4.07-4.18q.12-5.94,0-11.9c0-1.28.34-1.72,1.67-1.71,3.6,0,3.6,0,3.6,3.6,0,3.44,0,6.89,0,10.33A8.62,8.62,0,0,1,238.3,489c-5.82.39-9.93-2.36-10.31-7.52C227.63,476.51,227.91,471.54,227.91,466.53Z" transform="translate(-93.32 -242.28)"/><path class="cls-1" d="M271.27,473.81c-1.67,0-3.18.05-4.69,0a2,2,0,0,1-1.3-.65,5.38,5.38,0,0,0-6.22-2c-2.5.69-3.59,2.65-4,5-.86,4.61,2.18,8.44,6.36,7.92a4.66,4.66,0,0,0,2.93-1.31c1.15-1.49,2.53-1.6,4.13-1.52.87,0,1.74,0,2.62,0-.24,4-4.91,7.64-9.73,7.71-6.21.09-11-3.92-11.62-9.64-.68-6.81,2.95-12.15,8.86-13.06C264.78,465.3,269.93,468.27,271.27,473.81Z" transform="translate(-93.32 -242.28)"/><path class="cls-1" d="M295.63,473.8c-1.63,0-3.25.06-4.85,0-.42,0-.89-.5-1.2-.87a5.38,5.38,0,0,0-5.64-1.88,5.32,5.32,0,0,0-4.15,4.05,8.12,8.12,0,0,0,.42,6c1.59,3.36,6.44,4.29,8.84,1.57a3.58,3.58,0,0,1,3.29-1.37c1.09.07,2.19,0,3.31,0-.71,4.72-5.78,8.1-11.32,7.7-6.15-.44-10.2-5.15-10.14-11.81.05-6,4.13-10.58,9.65-10.94C290.14,465.79,295,468.83,295.63,473.8Z" transform="translate(-93.32 -242.28)"/><path class="cls-1" d="M114.87,481.24c-1.17,4.66-4.38,8-13,7.28-4.11-.36-8.3-4.86-8.53-9.36-.36-7,3.09-12,8.85-12.91,6.23-.95,11.23,1.89,12.76,7.48-2.39-.27-4.76,1.07-6.86-1.43s-6.37-1.83-8.26.87a8.38,8.38,0,0,0,.1,8.78c1.89,2.57,6.07,3.1,8.15.73a4.14,4.14,0,0,1,3.79-1.45C112.86,481.28,113.84,481.24,114.87,481.24Z" transform="translate(-93.32 -242.28)"/><path class="cls-1" d="M375.31,482.27c1.61,0,3.17-.06,4.73,0,.38,0,.84.5,1.06.89a2.74,2.74,0,0,0,3.55,1.4,2.88,2.88,0,0,0,1.71-1.69,2.85,2.85,0,0,0-1-2.18,9.32,9.32,0,0,0-2.67-1.23c-1.35-.54-2.77-.93-4.08-1.55a5.55,5.55,0,0,1-3.36-5.47,5.81,5.81,0,0,1,3.59-5.54,10.49,10.49,0,0,1,9.3.1,6.2,6.2,0,0,1,3.54,5.45c-1.72,0-3.28.06-4.84,0-.39,0-.84-.49-1.1-.86a2.69,2.69,0,0,0-3.13-1.34,2.5,2.5,0,0,0-1.56,1.39,2.61,2.61,0,0,0,.58,2.16,9.43,9.43,0,0,0,2.73,1.47c1.45.61,3,1,4.38,1.73a6.07,6.07,0,0,1,.62,10.42c-3.2,2.34-9.19,2-12.1-.66A5.48,5.48,0,0,1,375.31,482.27Z" transform="translate(-93.32 -242.28)"/><path class="cls-1" d="M183.85,472.49c-1.59,0-3,.07-4.49,0-.45,0-.85-.55-1.29-.82-.85-.51-1.7-1.34-2.59-1.4a2.6,2.6,0,0,0-2.08,1.38,2.82,2.82,0,0,0,.76,2.38,9.12,9.12,0,0,0,2.8,1.36,42.92,42.92,0,0,1,4.2,1.71,5.94,5.94,0,0,1,1.06,9.87c-3.3,3-10,2.75-12.95-.58a22.2,22.2,0,0,1-2.2-4.05c2.21,0,3.8-.05,5.39,0,.33,0,.71.49.91.84a2.74,2.74,0,0,0,3.54,1.44,2.13,2.13,0,0,0,.8-3.86,8.89,8.89,0,0,0-2.65-1.26c-1.46-.59-3-1-4.39-1.72a5.42,5.42,0,0,1-3.11-5.27,5.71,5.71,0,0,1,3.26-5.4,10.48,10.48,0,0,1,9.92.08A5.64,5.64,0,0,1,183.85,472.49Z" transform="translate(-93.32 -242.28)"/><path class="cls-1" d="M372,466.46v4.05c-2.23,0-4.37.08-6.5,0-1.41-.07-1.89.44-1.76,1.8.09,1,0,2,0,3.08h7.17v4h-6.85a3.21,3.21,0,0,0-.27.7c-.36,4.56-.36,4.56,4.15,4.56H372v4.06H358.57V466.46Z" transform="translate(-93.32 -242.28)"/><path class="cls-1" d="M197.86,488.7h-5.23V470.56h-5.87v-4.1c.46,0,1-.13,1.47-.13,4.67,0,9.34.07,14,0,1.73-.05,1.69.86,1.67,2.06s.12,2.45-1.72,2.16H202c-4.14.05-4.14.05-4.14,4.29v13.9Z" transform="translate(-93.32 -242.28)"/><path class="cls-1" d="M299.58,466.41h5v22.28h-5Z" transform="translate(-93.32 -242.28)"/><path class="cls-1" d="M316,464.54c-.67-3.06-.59-3.24,1.82-4.41l5-2.41c1,2.79.61,3.7-1.88,4.75Z" transform="translate(-93.32 -242.28)"/><path class="cls-1" d="M201,434.85V421.34h2.57c3.1,0,6.19-.08,9.28,0,4.49.18,7.2,2.84,7.26,6.91,0,3.48-1.63,6.12-5.11,6.45C210.41,435.18,205.74,434.85,201,434.85Z" transform="translate(-93.32 -242.28)"/><path class="cls-1" d="M201,410.42V397.5c4,0,8-.27,11.92.07s5.8,2.93,5.65,7c-.11,3.29-2.34,5.61-6,5.8S205,410.42,201,410.42Z" transform="translate(-93.32 -242.28)"/><path class="cls-1" d="M313.51,477.42c0-4,2.39-6.65,6-6.66s6,2.57,6.08,6.62-2.4,6.78-6.12,6.74S313.51,481.51,313.51,477.42Z" transform="translate(-93.32 -242.28)"/><path class="cls-1" d="M135.34,477.51c0,4-2.44,6.62-6.1,6.61s-6.05-2.62-6.07-6.65,2.47-6.75,6.2-6.71S135.37,473.52,135.34,477.51Z" transform="translate(-93.32 -242.28)"/><path class="cls-1" d="M212.32,476.34v-5.58c1.43,0,2.81-.1,4.17,0a2.85,2.85,0,0,1-.1,5.62,17.46,17.46,0,0,1-2.61,0C213.33,476.44,212.88,476.38,212.32,476.34Z" transform="translate(-93.32 -242.28)"/></svg>